<?xml version="1.0" standalone="no"?>
<!DOCTYPE svg PUBLIC "-//W3C//DTD SVG 20010904//EN"
 "http://www.w3.org/TR/2001/REC-SVG-20010904/DTD/svg10.dtd">
<svg version="1.0" xmlns="http://www.w3.org/2000/svg"
 width="512.000000pt" height="512.000000pt" viewBox="0 0 512.000000 512.000000"
 preserveAspectRatio="xMidYMid meet">

<g transform="translate(0.000000,512.000000) scale(0.100000,-0.100000)"
fill="#808080" stroke="none">
<path d="M1691 3920 c-213 -56 -395 -243 -445 -460 -12 -49 -16 -125 -16 -302
l0 -238 100 0 100 0 0 203 c0 111 5 229 10 262 28 171 167 312 340 345 77 15
1603 13 1672 -1 163 -35 292 -164 327 -327 6 -30 11 -147 11 -270 l0 -217
-163 163 c-89 89 -167 162 -172 162 -13 0 -135 -122 -135 -135 0 -6 128 -138
285 -295 l285 -285 290 290 290 290 -67 67 c-37 38 -72 68 -78 68 -5 0 -83
-73 -172 -162 l-163 -163 0 245 c0 277 -8 331 -65 439 -66 125 -158 217 -280
276 -136 67 -100 65 -1035 64 -802 0 -849 -1 -919 -19z"/>
<path d="M1037 2252 l-287 -287 72 -73 73 -72 167 167 168 168 0 -215 c0 -245
9 -301 68 -420 26 -54 58 -97 112 -151 88 -89 175 -141 285 -169 75 -19 111
-20 919 -20 930 0 895 -2 1031 65 122 59 214 151 280 276 57 108 65 162 65
437 l0 242 -100 0 -100 0 0 -215 c0 -120 -5 -237 -11 -267 -35 -163 -164 -292
-327 -327 -69 -14 -1595 -16 -1672 -1 -173 33 -312 174 -340 345 -5 33 -10
141 -10 240 l0 180 168 -168 167 -167 73 73 72 72 -288 288 c-158 158 -289
287 -292 287 -3 0 -134 -129 -293 -288z"/>
</g>
</svg>
